# xmcd
#
# Track frame offsets: 
#        150
#        21750
#        47620
#        73370
#        89722
#        110095
#        138197
#        158042
#        183102
#        194165
#        213237
#        237330
#        255105
#
# Disc length: 3613 seconds
#
# Revision: 0
# Processed by: cddbd v1.4PL0 Copyright (c) Steve Scherf et al.
# Submitted via: ExactAudioCopy v0.90b4
#
DISCID=b70e1b0d
DTITLE=Various Artist - Essential Jazz Bossa
DYEAR=2000
DGENRE=
TTITLE0=Paul Desmond - The Night Has A Thousand Eyes
TTITLE1=Larry Goldings - So Danco Samba (Jazz Samba)
TTITLE2=Harry Allen - No More Blues
TTITLE3=Sadao Watanabe - The Girl From Ipanema
TTITLE4=Forma De Agua - Agua De Beber
TTITLE5=John Pizzarelli - S'Wonderful
TTITLE6=Paul Desmond - Samba De Orfeu
TTITLE7=Ernan Lopez-Nussa - Blue Bossa
TTITLE8=Shigeko Suzuki - One Note Samba
TTITLE9=Paul Desmond - The Theme From Black Orpheus
TTITLE10=Larry Goldings - Menina-Moca
TTITLE11=Harry Allen - Corcovado
TTITLE12=Sadao Watanabe - Once I Loved
EXTD=
EXTT0=
EXTT1=
EXTT2=
EXTT3=
EXTT4=
EXTT5=
EXTT6=
EXTT7=
EXTT8=
EXTT9=
EXTT10=
EXTT11=
EXTT12=
PLAYORDER=
